<svg width="1148" height="1094" xmlns="http://www.w3.org/2000/svg" xmlns:xlink="http://www.w3.org/1999/xlink" xml:space="preserve" overflow="hidden"><g transform="translate(-471 -330)"><path d="M797.5 579C797.5 442.309 908.31 331.5 1045 331.5 1181.69 331.5 1292.5 442.309 1292.5 579 1292.5 715.69 1181.69 826.5 1045 826.5 908.31 826.5 797.5 715.69 797.5 579Z" stroke="#9FC5E8" stroke-width="3.4375" stroke-linejoin="round" stroke-miterlimit="10" fill="#9FC5E8" fill-rule="evenodd"/><path d="M114.172 700.119C149.743 677.703 183.301 640.083 216.363 592.049 249.425 544.023 286.991 476.575 312.541 411.94 338.091 347.305 345.106 260.866 369.654 204.239 394.202 147.611 415.735 106.177 459.82 72.1553 503.905 38.1336 570.525 2.01984 634.147 0.108206 697.769-1.79441 790.445 22.092 841.536 60.7125 892.636 99.333 929.697 161.777 940.721 231.822 951.744 301.867 941.723 396.935 907.659 480.984 873.595 565.042 804.971 673.104 736.338 736.143 667.714 799.182 578.542 838.217 495.888 859.227 413.234 880.237 322.563 884.331 240.405 862.221 158.248 840.111 23.9972 753.591 2.96128 726.576-18.0746 699.56 78.6093 722.545 114.172 700.119Z" stroke="#6FA8DC" stroke-width="3.4375" stroke-linejoin="round" stroke-miterlimit="10" fill="#6FA8DC" fill-rule="evenodd" transform="matrix(-1 0 0 1 1417.5 532.5)"/><path d="M787.551 1244.62C823.085 1222.2 856.607 1184.58 889.634 1136.55 922.66 1088.52 960.187 1021.07 985.71 956.44 1011.23 891.805 1018.24 805.366 1042.76 748.739 1067.28 692.111 1088.79 650.677 1132.83 616.655 1176.87 582.634 1243.42 546.52 1306.98 544.608 1370.53 542.706 1463.11 566.592 1514.15 605.213 1565.19 643.833 1602.21 706.277 1613.22 776.322 1624.24 846.367 1614.23 941.435 1580.2 1025.48 1546.17 1109.54 1477.62 1217.6 1409.06 1280.64 1340.51 1343.68 1251.43 1382.72 1168.86 1403.73 1086.3 1424.74 995.721 1428.83 913.651 1406.72 831.58 1384.61 697.472 1298.09 676.458 1271.08 655.444 1244.06 752.026 1267.04 787.551 1244.62Z" stroke="#3D85C6" stroke-width="3.4375" stroke-linejoin="round" stroke-miterlimit="10" fill="#3D85C6" fill-rule="evenodd"/></g></svg>